<?xml version="1.0" encoding="UTF-8"?>
<!DOCTYPE svg PUBLIC "-//W3C//DTD SVG 1.1//EN" "http://www.w3.org/Graphics/SVG/1.1/DTD/svg11.dtd">
<svg xmlns="http://www.w3.org/2000/svg" version="1.1" width="1080px" height="952px" style="shape-rendering:geometricPrecision; text-rendering:geometricPrecision; image-rendering:optimizeQuality; fill-rule:evenodd; clip-rule:evenodd" xmlns:xlink="http://www.w3.org/1999/xlink">
<g><path style="opacity:1" fill="#fefefe" d="M -0.5,-0.5 C 359.5,-0.5 719.5,-0.5 1079.5,-0.5C 1079.5,316.833 1079.5,634.167 1079.5,951.5C 719.5,951.5 359.5,951.5 -0.5,951.5C -0.5,634.167 -0.5,316.833 -0.5,-0.5 Z"/></g>
<g><path style="opacity:1" fill="#31414b" d="M 188.5,182.5 C 200.655,181.505 212.989,181.171 225.5,181.5C 225.832,247.669 225.499,313.669 224.5,379.5C 224.5,313.833 224.5,248.167 224.5,182.5C 212.5,182.5 200.5,182.5 188.5,182.5 Z"/></g>
<g><path style="opacity:1" fill="#1e3343" d="M 188.5,182.5 C 200.5,182.5 212.5,182.5 224.5,182.5C 224.5,248.167 224.5,313.833 224.5,379.5C 212.678,380.495 200.678,380.828 188.5,380.5C 188.5,314.5 188.5,248.5 188.5,182.5 Z"/></g>
<g><path style="opacity:1" fill="#203444" d="M 67.5,349.5 C 69.0188,350.41 70.6854,351.243 72.5,352C 79.6791,352.821 86.6791,352.655 93.5,351.5C 105.867,349.909 114.033,343.242 118,331.5C 118.57,327.24 119.403,323.074 120.5,319C 132.829,318.5 145.162,318.333 157.5,318.5C 155.709,349.263 140.376,369.597 111.5,379.5C 106.717,380.509 102.05,381.509 97.5,382.5C 48.3968,387.892 18.2301,366.558 7,318.5C 3.3713,295.433 3.70463,272.433 8,249.5C 21.2292,206.454 50.3958,186.621 95.5,190C 133.204,195.867 153.871,217.701 157.5,255.5C 144.833,255.5 132.167,255.5 119.5,255.5C 120.5,235.002 110.833,223.502 90.5,221C 71.0382,218.147 57.2049,225.647 49,243.5C 47.0464,249.026 45.713,254.693 45,260.5C 44.1424,279.526 44.4758,298.526 46,317.5C 47.6515,328.153 52.1515,337.32 59.5,345C 62.0594,346.777 64.7261,348.277 67.5,349.5 Z"/></g>
<g><path style="opacity:1" fill="#1f3344" d="M 751.5,193.5 C 779.527,198.032 796.694,214.032 803,241.5C 807.396,278.773 791.563,301.773 755.5,310.5C 736.723,312.002 718.057,313.002 699.5,313.5C 698.503,335.66 698.169,357.994 698.5,380.5C 685.124,381.148 672.124,380.481 659.5,378.5C 660.499,316.669 660.832,254.669 660.5,192.5C 690.849,192.222 721.183,192.556 751.5,193.5 Z"/></g>
<g><path style="opacity:1" fill="#3b4b57" d="M 751.5,193.5 C 721.183,192.556 690.849,192.222 660.5,192.5C 660.832,254.669 660.499,316.669 659.5,378.5C 659.5,316.167 659.5,253.833 659.5,191.5C 688.169,191.333 716.835,191.5 745.5,192C 747.708,192.191 749.708,192.691 751.5,193.5 Z"/></g>
<g><path style="opacity:1" fill="#fbfcfc" d="M 698.5,222.5 C 712.837,222.333 727.171,222.5 741.5,223C 753.198,225.696 760.698,232.863 764,244.5C 765.834,254.909 764.167,264.576 759,273.5C 754.783,278.078 749.616,281.078 743.5,282.5C 728.845,283.666 714.178,283.833 699.5,283C 698.507,262.909 698.173,242.743 698.5,222.5 Z"/></g>
<g><path style="opacity:1" fill="#7e868d" d="M 897.5,237.5 C 895.485,238.924 893.152,239.59 890.5,239.5C 892.515,238.076 894.848,237.41 897.5,237.5 Z"/></g>
<g><path style="opacity:1" fill="#1f3344" d="M 631.5,272.5 C 625.347,271.347 619.014,271.18 612.5,272C 608.387,273.188 604.72,275.021 601.5,277.5C 598.078,279.646 595.578,282.646 594,286.5C 593.667,317.5 593.333,348.5 593,379.5C 580.914,380.488 568.747,380.822 556.5,380.5C 556.5,334.167 556.5,287.833 556.5,241.5C 567.833,241.5 579.167,241.5 590.5,241.5C 590.956,245.664 591.622,249.664 592.5,253.5C 592.369,254.239 592.536,254.906 593,255.5C 603.156,240.562 616.99,235.062 634.5,239C 635.487,250.085 635.821,261.252 635.5,272.5C 634.167,272.5 632.833,272.5 631.5,272.5 Z"/></g>
<g><path style="opacity:1" fill="#1f3344" d="M 339.5,240.5 C 364.302,246.975 378.635,262.975 382.5,288.5C 382.302,293.75 382.969,298.75 384.5,303.5C 384.5,309.833 384.5,316.167 384.5,322.5C 354.5,322.5 324.5,322.5 294.5,322.5C 294.232,324.099 294.566,325.432 295.5,326.5C 297.946,340.45 305.946,349.616 319.5,354C 336.196,355.977 350.529,351.144 362.5,339.5C 369.203,345.202 375.203,351.536 380.5,358.5C 370.469,371.692 357.135,379.525 340.5,382C 311.014,387.326 286.848,378.493 268,355.5C 259.122,340.363 255.289,324.03 256.5,306.5C 257.889,301.731 258.556,296.731 258.5,291.5C 260.302,279.235 265.302,268.568 273.5,259.5C 274.75,259.423 275.583,258.756 276,257.5C 276.333,258.167 276.667,258.833 277,259.5C 277.309,258.234 277.809,257.067 278.5,256C 282.833,253.389 287,250.556 291,247.5C 296.426,246.209 301.592,243.709 306.5,240C 317.516,239.347 328.516,239.514 339.5,240.5 Z"/></g>
<g><path style="opacity:1" fill="#2c3c49" d="M 509.5,254.5 C 508.211,255.501 506.878,255.334 505.5,254C 502.544,252.047 499.877,249.714 497.5,247C 494.776,246.73 492.109,246.23 489.5,245.5C 488.197,246.718 487.197,246.385 486.5,244.5C 484.236,245.038 481.903,244.704 479.5,243.5C 478.094,244.668 476.928,244.335 476,242.5C 472.256,243.626 468.423,243.793 464.5,243C 465.833,242.667 467.167,242.333 468.5,242C 467.5,241.833 466.5,241.667 465.5,241.5C 460.28,242.696 455.113,244.03 450,245.5C 445.148,242.9 440.314,243.067 435.5,246C 438.544,246.359 438.878,247.026 436.5,248C 433.851,248.452 431.351,249.286 429,250.5C 428.329,249.748 427.496,249.414 426.5,249.5C 432.153,245.437 438.486,242.603 445.5,241C 462.122,238.223 478.455,239.223 494.5,244C 500.267,246.538 505.267,250.038 509.5,254.5 Z"/></g>
<g><path style="opacity:1" fill="#5e6a72" d="M 556.5,241.5 C 567.988,240.505 579.655,240.172 591.5,240.5C 592.295,244.785 592.628,249.119 592.5,253.5C 591.622,249.664 590.956,245.664 590.5,241.5C 579.167,241.5 567.833,241.5 556.5,241.5 Z"/></g>
<g><path style="opacity:1" fill="#6a757f" d="M 869.5,244.5 C 868.596,243.791 868.263,242.791 868.5,241.5C 857.167,241.5 845.833,241.5 834.5,241.5C 834.5,287.5 834.5,333.5 834.5,379.5C 833.501,333.336 833.168,287.003 833.5,240.5C 845.5,240.5 857.5,240.5 869.5,240.5C 869.5,241.833 869.5,243.167 869.5,244.5 Z"/></g>
<g><path style="opacity:1" fill="#1f3444" d="M 897.5,237.5 C 903.008,237.151 908.341,237.817 913.5,239.5C 913.667,250.172 913.5,260.839 913,271.5C 911.301,272.406 909.467,272.739 907.5,272.5C 902.015,271.348 896.349,271.182 890.5,272C 888.277,272.566 886.277,273.4 884.5,274.5C 878.827,276.425 874.661,280.092 872,285.5C 871.667,316.833 871.333,348.167 871,379.5C 858.735,380.83 846.569,380.83 834.5,379.5C 834.5,333.5 834.5,287.5 834.5,241.5C 845.833,241.5 857.167,241.5 868.5,241.5C 868.263,242.791 868.596,243.791 869.5,244.5C 869.163,248.308 869.663,251.974 871,255.5C 875.914,248.073 882.414,242.739 890.5,239.5C 893.152,239.59 895.485,238.924 897.5,237.5 Z"/></g>
<g><path style="opacity:1" fill="#1f3444" d="M 1057.5,306.5 C 1057.56,313.524 1057.23,320.524 1056.5,327.5C 1047.66,368.948 1022,387.448 979.5,383C 950.228,376.728 932.728,358.895 927,329.5C 921.755,303.501 926.755,279.834 942,258.5C 957.87,241.709 977.37,234.876 1000.5,238C 1028.47,241.97 1046.64,257.47 1055,284.5C 1056.33,291.783 1057.16,299.116 1057.5,306.5 Z"/></g>
<g><path style="opacity:1" fill="#203445" d="M 509.5,254.5 C 516.784,261.133 520.951,269.466 522,279.5C 522.333,306.5 522.667,333.5 523,360.5C 524.409,367.549 525.909,374.549 527.5,381.5C 515.149,381.832 502.815,381.499 490.5,380.5C 488.872,376.992 487.706,373.325 487,369.5C 486.586,369.043 486.086,368.709 485.5,368.5C 465.493,386.06 443.826,388.227 420.5,375C 400.258,357.546 397.091,337.379 411,314.5C 421.883,303.59 435.05,297.59 450.5,296.5C 461.988,295.947 473.321,295.28 484.5,294.5C 486.858,270.709 476.192,261.543 452.5,267C 446.567,270.036 443.567,274.869 443.5,281.5C 431.167,281.5 418.833,281.5 406.5,281.5C 407.117,266.915 413.783,256.248 426.5,249.5C 427.496,249.414 428.329,249.748 429,250.5C 431.351,249.286 433.851,248.452 436.5,248C 438.878,247.026 438.544,246.359 435.5,246C 440.314,243.067 445.148,242.9 450,245.5C 455.113,244.03 460.28,242.696 465.5,241.5C 466.5,241.667 467.5,241.833 468.5,242C 467.167,242.333 465.833,242.667 464.5,243C 468.423,243.793 472.256,243.626 476,242.5C 476.928,244.335 478.094,244.668 479.5,243.5C 481.903,244.704 484.236,245.038 486.5,244.5C 487.197,246.385 488.197,246.718 489.5,245.5C 492.109,246.23 494.776,246.73 497.5,247C 499.877,249.714 502.544,252.047 505.5,254C 506.878,255.334 508.211,255.501 509.5,254.5 Z"/></g>
<g><path style="opacity:1" fill="#35434f" d="M 339.5,240.5 C 328.516,239.514 317.516,239.347 306.5,240C 301.592,243.709 296.426,246.209 291,247.5C 287,250.556 282.833,253.389 278.5,256C 277.809,257.067 277.309,258.234 277,259.5C 276.667,258.833 276.333,258.167 276,257.5C 275.583,258.756 274.75,259.423 273.5,259.5C 285.692,244.827 301.525,237.494 321,237.5C 326.17,237.967 331.337,238.467 336.5,239C 337.737,239.232 338.737,239.732 339.5,240.5 Z"/></g>
<g><path style="opacity:1" fill="#cfd6db" d="M 913.5,239.5 C 914.659,250.326 914.826,261.326 914,272.5C 911.726,273.811 909.56,273.811 907.5,272.5C 909.467,272.739 911.301,272.406 913,271.5C 913.5,260.839 913.667,250.172 913.5,239.5 Z"/></g>
<g><path style="opacity:1" fill="#bcc5cd" d="M 335.5,270.5 C 331.114,269.061 326.614,268.061 322,267.5C 318.064,267.727 314.23,268.393 310.5,269.5C 313.811,267.022 317.645,266.022 322,266.5C 324.5,266.667 327,266.833 329.5,267C 331.432,268.459 333.432,269.625 335.5,270.5 Z"/></g>
<g><path style="opacity:1" fill="#f8f9fa" d="M 335.5,270.5 C 344.554,277.494 348.221,286.66 346.5,298C 329.5,298.667 312.5,298.667 295.5,298C 295.023,290.717 296.856,283.884 301,277.5C 303.766,274.223 306.933,271.557 310.5,269.5C 314.23,268.393 318.064,267.727 322,267.5C 326.614,268.061 331.114,269.061 335.5,270.5 Z"/></g>
<g><path style="opacity:1" fill="#fbfcfc" d="M 984.5,266.5 C 1004.82,265.644 1016.65,275.311 1020,295.5C 1021.36,309.697 1020.36,323.697 1017,337.5C 1006.78,355.739 992.611,359.572 974.5,349C 964.916,337.313 960.916,323.813 962.5,308.5C 960.974,293.063 965.974,280.23 977.5,270C 980.069,269.102 982.402,267.935 984.5,266.5 Z"/></g>
<g><path style="opacity:1" fill="#b1bac0" d="M 907.5,272.5 C 899.713,272.132 892.046,272.798 884.5,274.5C 886.277,273.4 888.277,272.566 890.5,272C 896.349,271.182 902.015,271.348 907.5,272.5 Z"/></g>
<g><path style="opacity:1" fill="#c6cfd5" d="M 631.5,272.5 C 625.491,272.334 619.491,272.501 613.5,273C 609.769,275.259 605.769,276.759 601.5,277.5C 604.72,275.021 608.387,273.188 612.5,272C 619.014,271.18 625.347,271.347 631.5,272.5 Z"/></g>
<g><path style="opacity:1" fill="#8e98a0" d="M 484.5,294.5 C 473.321,295.28 461.988,295.947 450.5,296.5C 450.918,295.778 451.584,295.278 452.5,295C 463.161,294.5 473.828,294.333 484.5,294.5 Z"/></g>
<g><path style="opacity:1" fill="#7c878d" d="M 382.5,288.5 C 383.889,293.269 384.556,298.269 384.5,303.5C 382.969,298.75 382.302,293.75 382.5,288.5 Z"/></g>
<g><path style="opacity:1" fill="#5c6971" d="M 258.5,291.5 C 258.556,296.731 257.889,301.731 256.5,306.5C 256.302,301.25 256.969,296.25 258.5,291.5 Z"/></g>
<g><path style="opacity:1" fill="#bec7ce" d="M 755.5,310.5 C 752.512,312.14 749.179,312.974 745.5,313C 730.17,313.5 714.837,313.667 699.5,313.5C 718.057,313.002 736.723,312.002 755.5,310.5 Z"/></g>
<g><path style="opacity:1" fill="#fafbfb" d="M 459.5,316.5 C 468.167,316.5 476.833,316.5 485.5,316.5C 490.543,343.951 479.21,356.785 451.5,355C 441.646,350.117 438.146,342.284 441,331.5C 444.401,322.919 450.568,317.919 459.5,316.5 Z"/></g>
<g><path style="opacity:1" fill="#c9d3dc" d="M 384.5,322.5 C 355.005,323.498 325.338,323.831 295.5,323.5C 295.5,324.5 295.5,325.5 295.5,326.5C 294.566,325.432 294.232,324.099 294.5,322.5C 324.5,322.5 354.5,322.5 384.5,322.5 Z"/></g>
<g><path style="opacity:1" fill="#849097" d="M 1057.5,306.5 C 1058.16,308.978 1058.5,311.645 1058.5,314.5C 1058.62,319.093 1057.95,323.426 1056.5,327.5C 1057.23,320.524 1057.56,313.524 1057.5,306.5 Z"/></g>
<g><path style="opacity:1" fill="#c0c9d1" d="M 67.5,349.5 C 76.0285,351.248 84.6951,351.915 93.5,351.5C 86.6791,352.655 79.6791,352.821 72.5,352C 70.6854,351.243 69.0188,350.41 67.5,349.5 Z"/></g>
<g><path style="opacity:1" fill="#b8c2ca" d="M 111.5,379.5 C 107.262,381.956 102.596,382.956 97.5,382.5C 102.05,381.509 106.717,380.509 111.5,379.5 Z"/></g>
<g><path style="opacity:1" fill="#aadce9" d="M 133.5,489.5 C 154.379,487.675 167.879,496.675 174,516.5C 175.61,536.132 167.11,548.965 148.5,555C 126.774,557.891 113.274,548.724 108,527.5C 106.331,514.669 110.498,504.169 120.5,496C 124.789,493.495 129.122,491.328 133.5,489.5 Z"/></g>
<g><path style="opacity:1" fill="#1083ab" d="M 956.5,514.5 C 958.146,526.594 955.146,537.261 947.5,546.5C 942.929,550.283 937.929,553.283 932.5,555.5C 925.457,555.72 918.457,555.386 911.5,554.5C 890.743,542.387 885.576,525.387 896,503.5C 912.68,485.904 930.346,484.904 949,500.5C 951.834,505.119 954.334,509.786 956.5,514.5 Z"/></g>
<g><path style="opacity:1" fill="#dcf5fa" d="M 956.5,514.5 C 957.117,514.611 957.617,514.944 958,515.5C 959.268,524.708 957.768,533.375 953.5,541.5C 952.069,543.938 950.069,545.604 947.5,546.5C 955.146,537.261 958.146,526.594 956.5,514.5 Z"/></g>
<g><path style="opacity:1" fill="#cef1f7" d="M 911.5,554.5 C 918.457,555.386 925.457,555.72 932.5,555.5C 932.082,556.222 931.416,556.722 930.5,557C 925.833,557.667 921.167,557.667 916.5,557C 914.347,556.901 912.681,556.067 911.5,554.5 Z"/></g>
<g><path style="opacity:1" fill="#90d3e3" d="M 207.5,603.5 C 233.449,602.708 249.949,614.708 257,639.5C 259.375,668.277 246.542,685.777 218.5,692C 190.832,693.012 174.332,679.845 169,652.5C 168.942,625.917 181.775,609.583 207.5,603.5 Z"/></g>
<g><path style="opacity:1" fill="#1492b9" d="M 888.5,623.5 C 897.444,638.952 897.777,654.619 889.5,670.5C 887.552,673.621 885.385,676.621 883,679.5C 879.977,681.698 877.144,684.031 874.5,686.5C 856.543,695.624 839.543,694.29 823.5,682.5C 821.167,680.5 818.833,678.5 816.5,676.5C 812.892,670.946 810.058,664.946 808,658.5C 804.81,641.915 808.977,627.582 820.5,615.5C 841.233,599.386 861.9,599.553 882.5,616C 884.629,618.439 886.629,620.939 888.5,623.5 Z"/></g>
<g><path style="opacity:1" fill="#e3f9fc" d="M 820.5,615.5 C 808.977,627.582 804.81,641.915 808,658.5C 810.058,664.946 812.892,670.946 816.5,676.5C 813.357,675.254 811.357,672.92 810.5,669.5C 809.5,668.833 808.5,668.167 807.5,667.5C 807.987,666.554 808.32,665.554 808.5,664.5C 805.267,654.638 804.767,644.638 807,634.5C 809.005,629.497 811.005,624.497 813,619.5C 814.942,617.045 817.442,615.712 820.5,615.5 Z"/></g>
<g><path style="opacity:1" fill="#def8fb" d="M 888.5,623.5 C 889.583,623.539 890.583,623.873 891.5,624.5C 896.835,637.414 897.835,650.581 894.5,664C 896.428,666.733 895.761,667.9 892.5,667.5C 892.5,668.5 892.5,669.5 892.5,670.5C 891.5,670.5 890.5,670.5 889.5,670.5C 897.777,654.619 897.444,638.952 888.5,623.5 Z"/></g>
<g><path style="opacity:1" fill="#6fc8db" d="M 313.5,685.5 C 339.57,682.786 359.403,692.453 373,714.5C 384.586,740.82 380.086,763.987 359.5,784C 335.778,800.572 312.111,800.572 288.5,784C 269.621,766.381 264.121,745.215 272,720.5C 280.302,702.122 294.136,690.455 313.5,685.5 Z"/></g>
<g><path style="opacity:1" fill="#1ca1c5" d="M 730.5,685.5 C 763.205,683.418 784.705,697.751 795,728.5C 799.093,762.505 784.927,784.672 752.5,795C 725.524,799.428 705.024,789.928 691,766.5C 681.827,744.812 683.993,724.478 697.5,705.5C 706.442,695.525 717.442,688.858 730.5,685.5 Z"/></g>
<g><path style="opacity:1" fill="#dafafc" d="M 730.5,685.5 C 717.442,688.858 706.442,695.525 697.5,705.5C 697.351,704.448 697.517,703.448 698,702.5C 706.625,692.769 717.458,687.103 730.5,685.5 Z"/></g>
<g><path style="opacity:1" fill="#ddfafc" d="M 823.5,682.5 C 839.543,694.29 856.543,695.624 874.5,686.5C 872.832,689.651 870.166,691.484 866.5,692C 857.865,693.312 849.199,693.645 840.5,693C 835.636,691.688 830.97,689.855 826.5,687.5C 824.703,686.305 823.703,684.638 823.5,682.5 Z"/></g>
<g><path style="opacity:1" fill="#e5fcfe" d="M 476.5,725.5 C 453.097,720.576 432.43,725.91 414.5,741.5C 414.421,740.07 414.754,738.736 415.5,737.5C 419.277,734.945 423.277,732.945 427.5,731.5C 427.5,730.5 427.5,729.5 427.5,728.5C 432.919,726.136 438.585,724.303 444.5,723C 454.5,722.333 464.5,722.333 474.5,723C 475.381,723.708 476.047,724.542 476.5,725.5 Z"/></g>
<g><path style="opacity:1" fill="#46bcd5" d="M 476.5,725.5 C 515.602,739.691 531.435,767.357 524,808.5C 516.743,831.256 501.909,846.589 479.5,854.5C 456.761,860.351 436.094,856.351 417.5,842.5C 395.56,821.749 388.727,796.749 397,767.5C 401.11,757.596 406.943,748.929 414.5,741.5C 432.43,725.91 453.097,720.576 476.5,725.5 Z"/></g>
<g><path style="opacity:1" fill="#25add0" d="M 596.5,723.5 C 629.738,722.189 653.238,736.523 667,766.5C 676.973,800.585 667.473,827.751 638.5,848C 603.031,864.838 573.197,858.005 549,827.5C 530.721,795.996 534.221,767.162 559.5,741C 570.38,731.891 582.713,726.058 596.5,723.5 Z"/></g>
<g><path style="opacity:1" fill="#e0fbfc" d="M 417.5,842.5 C 436.094,856.351 456.761,860.351 479.5,854.5C 477.695,856.197 475.361,857.03 472.5,857C 453.009,860.762 435.343,857.095 419.5,846C 418.177,845.184 417.511,844.017 417.5,842.5 Z"/></g>
</svg>
